HIERARCHY
ROOT SpineBase
{
  OFFSET 0.000000 0.000000 0.000000
  CHANNELS 6 Xposition Yposition Zposition Zrotation Xrotation Yrotation
  JOINT SpineMid
  {
    OFFSET 0.000000 29.209517 0.000000
    CHANNELS 3 Zrotation Xrotation Yrotation
    JOINT SpineShoulder
    {
      OFFSET 0.077701 21.646427 -0.626375
      CHANNELS 3 Zrotation Xrotation Yrotation
      JOINT Neck
      {
        OFFSET 0.081570 7.157757 -0.531501
        CHANNELS 3 Zrotation Xrotation Yrotation
        JOINT Head
        {
          OFFSET -4.149362 12.653518 -1.964383
          CHANNELS 3 Zrotation Xrotation Yrotation
          End Site
          {
            OFFSET 0 0 0
          }
        }
      }
      JOINT ShoulderLeft
      {
        OFFSET -16.043851 -4.335426 6.552275
        CHANNELS 3 Zrotation Xrotation Yrotation
        JOINT ElbowLeft
        {
          OFFSET -0.797962 -26.466230 2.411637
          CHANNELS 3 Zrotation Xrotation Yrotation
          JOINT WristLeft
          {
            OFFSET 0.204650 -19.392574 -4.503862
            CHANNELS 3 Zrotation Xrotation Yrotation
            JOINT HandLeft
            {
              OFFSET 0.879515 -4.018232 -1.065007
              CHANNELS 3 Zrotation Xrotation Yrotation
              JOINT HandTipLeft
              {
                OFFSET 0.655460 -7.290166 -0.054577
                CHANNELS 3 Zrotation Xrotation Yrotation
                End Site
                {
                  OFFSET 0 0 0
                }
              }
              JOINT ThumbLeft
              {
                OFFSET -1.731430 -2.059030 -2.189288
                CHANNELS 3 Zrotation Xrotation Yrotation
                End Site
                {
                  OFFSET 0 0 0
                }
              }
            }
          }
        }
      }
      JOINT ShoulderRight
      {
        OFFSET 14.242992 -2.664803 -7.542968
        CHANNELS 3 Zrotation Xrotation Yrotation
        JOINT ElbowRight
        {
          OFFSET 6.442024 -24.830074 -1.021338
          CHANNELS 3 Zrotation Xrotation Yrotation
          JOINT WristRight
          {
            OFFSET -0.776366 -19.504351 -4.525281
            CHANNELS 3 Zrotation Xrotation Yrotation
            JOINT HandRight
            {
              OFFSET -1.453375 -6.033764 0.140088
              CHANNELS 3 Zrotation Xrotation Yrotation
              JOINT HandTipRight
              {
                OFFSET 0.457728 -5.989144 -1.189235
                CHANNELS 3 Zrotation Xrotation Yrotation
                End Site
                {
                  OFFSET 0 0 0
                }
              }
              JOINT ThumbRight
              {
                OFFSET -3.161048 1.115934 -0.687193
                CHANNELS 3 Zrotation Xrotation Yrotation
                End Site
                {
                  OFFSET 0 0 0
                }
              }
            }
          }
        }
      }
    }
  }
  JOINT HipLeft
  {
    OFFSET -6.353051 0.152467 -0.720511
    CHANNELS 3 Zrotation Xrotation Yrotation
    JOINT KneeLeft
    {
      OFFSET 5.667824 -30.194816 6.477401
      CHANNELS 3 Zrotation Xrotation Yrotation
      JOINT AnkleLeft
      {
        OFFSET 6.063972 -30.470336 3.416559
        CHANNELS 3 Zrotation Xrotation Yrotation
        JOINT FootLeft
        {
          OFFSET -2.917228 -4.059621 -11.691275
          CHANNELS 3 Zrotation Xrotation Yrotation
          End Site
          {
            OFFSET 0 0 0
          }
        }
      }
    }
  }
  JOINT HipRight
  {
    OFFSET 6.960606 1.562805 -5.834336
    CHANNELS 3 Zrotation Xrotation Yrotation
    JOINT KneeRight
    {
      OFFSET 7.441077 -27.274690 2.385981
      CHANNELS 3 Zrotation Xrotation Yrotation
      JOINT AnkleRight
      {
        OFFSET 2.456389 -34.007198 7.022280
        CHANNELS 3 Zrotation Xrotation Yrotation
        JOINT FootRight
        {
          OFFSET -2.887594 -7.646537 -3.968658
          CHANNELS 3 Zrotation Xrotation Yrotation
          End Site
          {
            OFFSET 0 0 0
          }
        }
      }
    }
  }
}
MOTION
Frames: 10
Frame Time: 0.033333
-31.054210 68.534902 344.987327 -0.000000 0.000000 21.011968 0.000000 0.000000 -21.011968 -0.000000 0.000000 0.000000 -0.000000 0.000000 0.000000 0.000000 0.000000 0.000000 -0.000000 0.000000 0.000000 -0.000000 0.000000 0.000000 -0.000000 0.000000 0.000000 -0.000000 0.000000 0.000000 0.000000 0.000000 0.000000 0.000000 0.000000 0.000000 -0.000000 0.000000 0.000000 -0.000000 0.000000 0.000000 -0.000000 0.000000 0.000000 -0.000000 0.000000 0.000000 0.000000 0.000000 0.000000 0.000000 0.000000 0.000000 0.000000 0.000000 -21.011968 -0.000000 0.000000 0.000000 -0.000000 0.000000 0.000000 0.000000 0.000000 0.000000 0.000000 0.000000 -21.011968 -0.000000 0.000000 0.000000 -0.000000 0.000000 0.000000 0.000000 0.000000 0.000000
-31.014526 68.490575 345.115243 0.097081 -0.189082 20.508628 -0.024684 0.211109 -20.508422 -0.000000 0.000000 0.000000 -0.000000 0.000000 0.000000 0.000000 0.000000 0.000000 -0.000000 0.000000 0.000000 -0.000000 0.000000 0.000000 0.822184 0.293596 -0.155412 0.010995 0.909195 0.248549 0.000000 0.000000 0.000000 0.000000 0.000000 0.000000 0.419340 -1.053144 -0.286470 -0.424672 1.051005 0.294220 1.103704 -0.478069 0.145710 0.513552 -1.070006 -0.568767 0.000000 0.000000 0.000000 0.000000 0.000000 0.000000 -0.024684 0.211109 -20.508422 -0.000000 0.000000 0.000000 4.201251 -5.855028 -9.271674 0.000000 0.000000 0.000000 -0.024684 0.211109 -20.508422 -0.000000 0.000000 0.000000 -0.000000 0.000000 0.000000 0.000000 0.000000 0.000000
-30.961245 68.447377 345.231543 0.204528 -0.375053 20.063721 -0.063451 0.422457 -20.062818 -0.000000 0.000000 0.000000 0.559710 -1.318672 -0.337961 0.000000 0.000000 0.000000 -0.000000 0.000000 0.000000 -0.000000 0.000000 0.000000 1.550934 0.414977 -0.324602 -0.279945 1.848454 0.491366 0.000000 0.000000 0.000000 0.000000 0.000000 0.000000 0.763737 -1.989874 -0.533920 -0.782712 1.982490 0.560726 1.910462 -0.856028 0.265853 1.272755 -2.187978 -1.069550 0.000000 0.000000 0.000000 0.000000 0.000000 0.000000 -0.063451 0.422457 -20.062818 -0.000000 0.000000 0.000000 7.448680 -12.452758 -18.131195 0.000000 0.000000 0.000000 -0.063451 0.422457 -20.062818 -0.000000 0.000000 0.000000 -0.200360 1.508161 -0.459495 0.000000 0.000000 0.000000
-30.894367 68.405307 345.336226 0.322317 -0.557858 19.676162 -0.115676 0.633806 -19.673953 0.432908 -0.686907 0.042552 0.340600 -1.117312 -0.503704 0.000000 0.000000 0.000000 -0.769642 -0.391911 -0.034618 0.336596 1.079316 -0.005047 2.176917 0.353753 -0.503828 -0.856667 2.841722 0.739318 0.000000 0.000000 0.000000 0.000000 0.000000 0.000000 0.603334 -2.130410 -0.796965 -1.076053 2.802575 0.798973 2.465688 -1.154314 0.361942 2.201870 -3.298070 -1.501643 0.000000 0.000000 0.000000 0.000000 0.000000 0.000000 -0.115676 0.633806 -19.673953 -0.867879 -0.162227 -0.131005 10.324754 -18.460409 -25.388499 0.000000 0.000000 0.000000 -1.035944 0.648541 -19.820900 0.306776 0.894438 0.087823 0.501501 1.666862 -0.739627 0.000000 0.000000 0.000000
-30.813894 68.364366 345.429294 0.450419 -0.737444 19.344976 -0.180737 0.845001 -19.340745 0.578592 -0.930925 0.058242 0.368153 -1.245884 -0.609732 0.000000 0.000000 0.000000 -0.976738 -0.436953 -0.042116 0.398070 1.368701 -0.009762 2.690935 0.100366 -0.690019 -1.716401 3.908542 1.006899 0.000000 0.000000 0.000000 0.000000 0.000000 0.000000 0.664587 -2.609568 -0.999113 -1.306128 3.518182 1.008585 2.795063 -1.386412 0.435131 3.248205 -4.354442 -1.865490 0.000000 0.000000 0.000000 0.000000 0.000000 0.000000 -0.180737 0.845001 -19.340745 -0.973078 -0.163880 -0.143336 11.360653 -23.362905 -30.603894 0.000000 0.000000 0.000000 -1.350289 0.915508 -19.509275 0.399296 1.049806 0.094916 0.964023 2.291785 -1.152048 0.000000 0.000000 0.000000
-30.719823 68.324554 345.510746 0.588798 -0.913759 19.069311 -0.177330 0.105909 -19.048745 0.337946 -0.310494 0.052311 0.355835 -1.256770 -0.686827 0.000000 0.000000 0.000000 -1.158677 -0.439575 -0.047547 0.434118 1.622741 -0.015541 3.083993 -0.353797 -0.881018 -2.871020 5.063266 1.313775 0.000000 0.000000 0.000000 0.000000 0.000000 0.000000 0.662039 -2.982452 -1.174068 -0.879092 3.428723 1.044147 2.329994 -0.838822 0.558926 4.380210 -5.322055 -2.163010 0.000000 0.000000 0.000000 0.000000 0.000000 0.000000 -0.258014 1.055957 -19.062239 -0.985749 -0.139390 -0.139692 11.669820 -26.681409 -33.470252 0.000000 0.000000 0.000000 -1.652196 1.209272 -19.239524 0.491632 1.133782 0.091244 1.571935 2.948620 -1.649531 0.000000 0.000000 0.000000
-30.581003 68.289377 345.580213 0.789879 -1.103326 18.749894 -0.270056 0.061520 -18.720354 0.401372 -0.368862 0.065075 0.240569 -1.030195 -0.723641 0.000000 0.000000 0.000000 -1.315897 -0.398681 -0.048328 0.400622 1.900898 -0.027503 2.773260 -1.720888 -1.068778 -3.415993 7.885582 1.766387 0.000000 0.000000 0.000000 0.000000 0.000000 0.000000 0.880670 -3.558709 -1.425036 -1.063428 3.677159 1.264922 1.039232 0.176694 0.452384 6.708611 -5.296871 -2.218332 0.000000 0.000000 0.000000 0.000000 0.000000 0.000000 -0.393446 1.298609 -18.737829 -0.881749 -0.084508 -0.116507 11.325504 -25.867147 -31.005005 0.000000 0.000000 0.000000 -2.023466 1.597381 -18.906290 0.482856 1.087221 0.042315 4.734645 4.605123 -3.802318 0.000000 0.000000 0.000000
-30.413743 68.254496 345.634336 1.021985 -1.270488 18.432008 -0.376743 0.009921 -18.391587 0.458698 -0.393934 0.077534 0.057997 -0.769480 -0.742940 0.000000 0.000000 0.000000 -1.479536 -0.424820 -0.048115 1.166947 2.719012 -0.256449 1.711043 -3.601647 -1.074663 -4.689995 9.660349 2.261850 0.000000 0.000000 0.000000 0.000000 0.000000 0.000000 1.135959 -4.646794 -1.784897 -0.705710 3.349036 1.478209 0.378049 0.059246 1.025247 7.733690 -4.906775 -3.132198 0.000000 0.000000 0.000000 0.000000 0.000000 0.000000 -0.805565 2.339522 -18.377878 0.481047 -0.694969 -0.024290 9.485781 -22.130693 -24.584338 0.000000 0.000000 0.000000 -2.425816 2.072851 -18.543561 0.615008 0.901871 -0.013348 5.747838 5.343975 -4.527353 0.000000 0.000000 0.000000
-30.213358 68.187770 345.657007 1.309568 -1.381998 17.886845 -0.547257 -0.058382 -17.833622 0.533882 -0.372591 0.089736 -0.171648 -0.536154 -0.752294 0.000000 0.000000 0.000000 -1.668130 -0.294470 -0.055272 1.454732 3.007942 -0.349872 2.214876 -4.418375 -1.295938 -8.776107 10.305160 3.109975 0.000000 0.000000 0.000000 0.000000 0.000000 0.000000 0.619480 -4.323090 -1.772249 1.242906 1.000649 1.069683 0.562260 0.193163 1.852430 6.704774 -2.538501 -4.116458 0.000000 0.000000 0.000000 0.000000 0.000000 0.000000 -1.457589 2.459902 -17.918066 0.832758 -0.511177 0.086209 9.772740 -26.348051 -24.735410 0.000000 0.000000 0.000000 -2.926361 2.543856 -17.939488 0.934777 0.675642 -0.045787 5.452013 5.225441 -4.306654 0.000000 0.000000 0.000000
-30.181417 68.112863 345.693410 1.303347 -1.523518 18.167014 -0.490114 -0.150632 -18.109291 0.485020 -0.379005 0.091312 -0.206010 -0.196759 -0.721643 0.000000 0.000000 0.000000 -1.803351 0.013872 -0.065564 1.757613 2.985050 -0.391893 2.697875 -6.453468 -1.765689 -12.992209 10.062604 4.222766 0.000000 0.000000 0.000000 0.000000 0.000000 0.000000 -0.701324 -3.158781 -1.514301 4.305536 -0.928747 0.347842 1.450909 1.586760 2.069647 6.759429 -8.109241 -4.392217 0.000000 0.000000 0.000000 0.000000 0.000000 0.000000 -1.515375 2.563844 -18.226293 0.935531 -0.439384 0.121519 9.600802 -26.436694 -22.911386 0.000000 0.000000 0.000000 -3.011463 2.627915 -18.247914 1.200806 0.831931 0.027560 4.342012 4.911948 -3.695252 0.000000 0.000000 0.000000
